<svg version="1.1" id="Layer_1" xmlns="http://www.w3.org/2000/svg" xmlns:xlink="http://www.w3.org/1999/xlink" x="0px" y="0px"
	 width="1417.32px" height="283.46px" viewBox="0 0 1417.32 283.46" enable-background="new 0 0 1417.32 283.46"
	 xml:space="preserve">
<g>
	<path fill="#FFFFFF" stroke="#000000" stroke-width="5" stroke-miterlimit="10" d="M55.203,129.819h69.917V66.411h24.46v162.09
		h-24.46v-75.69H55.203v75.69h-24.46V66.411h24.46V129.819z"/>
	<path fill="#FFFFFF" stroke="#000000" stroke-width="5" stroke-miterlimit="10" d="M277.866,89.402h-64.983v38.948h63.093v22.99
		h-63.093v54.171h64.983v22.99h-89.443V66.411h89.443V89.402z"/>
	<path fill="#FFFFFF" stroke="#000000" stroke-width="5" stroke-miterlimit="10" d="M334.451,66.411v139.1h47.661v22.99H309.99
		V66.411H334.451z"/>
	<path fill="#FFFFFF" stroke="#000000" stroke-width="5" stroke-miterlimit="10" d="M494.756,89.402h-64.983v38.948h63.093v22.99
		h-63.093v54.171h64.983v22.99h-89.443V66.411h89.443V89.402z"/>
	<path fill="#FFFFFF" stroke="#000000" stroke-width="5" stroke-miterlimit="10" d="M526.88,228.501V55.388l118.208,123.667V66.411
		h24.46v171.958L551.34,115.017v113.484H526.88z"/>
	<path fill="#FFFFFF" stroke="#000000" stroke-width="5" stroke-miterlimit="10" d="M866.387,90.452l-19.841,11.758
		c-3.711-6.438-7.244-10.638-10.604-12.598c-3.5-2.239-8.015-3.359-13.543-3.359c-6.789,0-12.423,1.927-16.901,5.779
		c-4.479,3.783-6.719,8.544-6.719,14.287c0,7.915,5.879,14.287,17.637,19.12l16.167,6.619c13.157,5.325,22.781,11.82,28.869,19.488
		c6.09,7.67,9.134,17.072,9.134,28.207c0,14.919-4.97,27.246-14.907,36.981c-10.009,9.806-22.432,14.707-37.268,14.707
		c-14.068,0-25.687-4.183-34.854-12.55c-9.029-8.359-14.663-20.099-16.902-35.216l24.775-5.46c1.119,9.52,3.079,16.099,5.879,19.737
		c5.039,6.999,12.388,10.498,22.046,10.498c7.628,0,13.962-2.553,19.001-7.657s7.559-11.574,7.559-19.408
		c0-3.146-0.438-6.031-1.312-8.654c-0.876-2.623-2.241-5.036-4.095-7.239c-1.854-2.202-4.252-4.267-7.191-6.188
		c-2.939-1.923-6.439-3.76-10.498-5.508l-15.642-6.504c-22.187-9.372-33.278-23.08-33.278-41.124
		c0-12.168,4.653-22.344,13.962-30.526c9.308-8.252,20.892-12.379,34.749-12.379C841.296,63.262,855.889,72.326,866.387,90.452z"/>
	<path fill="#FFFFFF" stroke="#000000" stroke-width="5" stroke-miterlimit="10" d="M924.546,66.411v97.56
		c0,13.918,2.273,24.093,6.823,30.526c6.788,9.303,16.342,13.953,28.66,13.953c12.388,0,21.976-4.65,28.765-13.953
		c4.549-6.224,6.823-16.399,6.823-30.526v-97.56h24.461v104.351c0,17.077-5.319,31.145-15.957,42.202
		c-11.968,12.318-26.665,18.477-44.092,18.477s-32.09-6.158-43.986-18.477c-10.64-11.058-15.957-25.125-15.957-42.202V66.411
		H924.546z"/>
	<path fill="#FFFFFF" stroke="#000000" stroke-width="5" stroke-miterlimit="10" d="M1103.642,89.402v139.099h-24.46V89.402h-37.269
		V66.411h98.893v22.991H1103.642z"/>
	<path fill="#FFFFFF" stroke="#000000" stroke-width="5" stroke-miterlimit="10" d="M1252.085,89.402h-64.983v38.948h63.093v22.99
		h-63.093v54.171h64.983v22.99h-89.443V66.411h89.443V89.402z"/>
	<path fill="#FFFFFF" stroke="#000000" stroke-width="5" stroke-miterlimit="10" d="M1339.113,159.424l50.181,69.077h-29.919
		l-46.297-66.348h-4.409v66.348h-24.46V66.411h28.659c21.416,0,36.883,4.025,46.401,12.073
		c10.498,8.959,15.747,20.786,15.747,35.483c0,11.479-3.29,21.347-9.868,29.605C1358.569,151.83,1349.891,157.114,1339.113,159.424z
		 M1308.669,140.842h7.769c23.165,0,34.748-8.853,34.748-26.56c0-16.587-11.269-24.88-33.803-24.88h-8.714V140.842z"/>
</g>
</svg>
